<?xml version="1.0" encoding="UTF-8"?>
<svg version="1.1" xmlns="http://www.w3.org/2000/svg" viewBox="0 0 200 200">
<path d="M0 0 C1.66565039 1.45681507 3.31325043 2.93466444 4.9375 4.4375 C6.00871094 5.40623047 6.00871094 5.40623047 7.1015625 6.39453125 C25.19731485 23.54706871 34.84018726 47.35508713 36.12109375 71.96484375 C36.66185187 100.24331274 26.46896369 125.06361046 7.1875 145.625 C-11.32561488 163.21060412 -35.19875121 172.07816069 -60.5625 172.6875 C-89.24325507 171.91812058 -113.05270654 160.61972619 -133.35546875 140.54296875 C-135.19572845 138.27317474 -136.12539209 136.19115554 -137.0625 133.4375 C-137.7225 133.4375 -138.3825 133.4375 -139.0625 133.4375 C-154.14464802 108.22110232 -160.9186826 82.96498912 -155.0625 53.4375 C-150.6802857 36.09276944 -142.21259703 21.42233652 -130.0625 8.4375 C-129.12083984 7.39335938 -129.12083984 7.39335938 -128.16015625 6.328125 C-95.44350118 -28.46699992 -36.24095922 -29.0934367 0 0 Z " fill="#010101" transform="translate(161.0625,24.5625)"/>
<path d="M0 0 C1 1 1 1 1.1875 4.4375 C1 8 1 8 -1 10 C-3.28515625 10.01953125 -3.28515625 10.01953125 -6.0625 9.8125 C-12.28786938 9.70670941 -16.00111794 11.43615822 -21 15 C-21.61617187 15.41121094 -22.23234375 15.82242188 -22.8671875 16.24609375 C-30.46878507 21.93884571 -35.43679564 31.25203053 -36.79296875 40.56640625 C-37.92846061 53.91379169 -35.11146049 63.75570889 -28.0625 75.125 C-26.05978242 77.32158033 -26.05978242 77.32158033 -22.75 77.3125 C-21.8425 77.209375 -20.935 77.10625 -20 77 C-19.80587819 75.52168779 -19.61987869 74.04230684 -19.4375 72.5625 C-19.33308594 71.73878906 -19.22867188 70.91507812 -19.12109375 70.06640625 C-19.08113281 69.38449219 -19.04117188 68.70257813 -19 68 C-19.495 67.505 -19.495 67.505 -20 67 C-20.4556962 61.75949367 -20.4556962 61.75949367 -18.875 59.125 C-16.15781176 57.49468706 -14.10347254 57.66984335 -11 58 C-9 60 -9 60 -8.6875 63.4375 C-9 67 -9 67 -10.4765625 68.4296875 C-12.47415413 70.48874349 -12.4829459 71.86465348 -12.6875 74.6875 C-12.75324219 75.49574219 -12.81898437 76.30398437 -12.88671875 77.13671875 C-12.92410156 77.75160156 -12.96148437 78.36648437 -13 79 C-9.01803543 80.05404945 -6.01804691 79.84098656 -2 79 C-1.87625 78.38125 -1.7525 77.7625 -1.625 77.125 C-1 75 -1 75 1 73 C7.46153846 73.46153846 7.46153846 73.46153846 10 76 C9.8125 79.5 9.8125 79.5 9 83 C5.73718826 85.17520782 4.7659092 85.28244319 1 85 C0.01 84.67 -0.98 84.34 -2 84 C-5.1668838 85.37492804 -5.1668838 85.37492804 -8 87 C-8.41870553 89.33071879 -8.41870553 89.33071879 -8 92 C-4.3392531 95.99354207 -1.19963891 96.31325524 4 97 C6 100 6 100 5.75 103.625 C5.5025 104.73875 5.255 105.8525 5 107 C2.20129973 108.39935013 0.09501208 108.25265405 -3 108 C-4.8125 106.8125 -4.8125 106.8125 -6 105 C-6.144375 104.175 -6.28875 103.35 -6.4375 102.5 C-6.79552546 99.89757681 -6.79552546 99.89757681 -8.75 98.1875 C-11.37152557 96.80391706 -13.07674878 96.75639573 -16 97 C-17.82941851 100.76644988 -18.23162684 102.96922125 -17 107 C-16.505 107.495 -16.505 107.495 -16 108 C-15.55562354 111.28838577 -15.7055407 112.59648169 -17.6875 115.3125 C-20 117 -20 117 -22.5625 117.4375 C-25 117 -25 117 -26.8125 115.875 C-28.55198782 113.12844028 -28.39769128 111.18153026 -28 108 C-26.5625 106.3125 -26.5625 106.3125 -25 105 C-23.8422494 101.52674819 -23.93133348 98.63932552 -24 95 C-29.08303686 94.88679144 -29.08303686 94.88679144 -34 96 C-34.61875 97.2684375 -34.61875 97.2684375 -35.25 98.5625 C-35.8275 99.366875 -36.405 100.17125 -37 101 C-40.5 101.5625 -40.5 101.5625 -44 101 C-46 99.3125 -46 99.3125 -47 97 C-46.75925978 93.62963689 -46.41201979 92.41201979 -44 90 C-41.828125 89.875 -41.828125 89.875 -39.25 90 C-35.07955494 90.09670597 -31.89472336 89.63988352 -28 88 C-28.90113716 83.29406148 -30.24441443 80.45171194 -33.3125 76.75 C-42.36693718 65.7107697 -43.92026918 53.79698579 -43 40 C-41.27554003 28.46668517 -34.41928579 18.30329845 -25.6328125 10.9140625 C-20.97341757 7.52666856 -15.89545199 4 -10 4 C-9.814375 3.0409375 -9.814375 3.0409375 -9.625 2.0625 C-9.41875 1.381875 -9.2125 0.70125 -9 0 C-5.90842747 -1.54578627 -3.31526981 -0.60277633 0 0 Z " fill="#F5F5F5" transform="translate(92,51)"/>
<path d="M0 0 C2.875 0.875 2.875 0.875 4.875 2.875 C5.25 5.6875 5.25 5.6875 4.875 8.875 C4.215 9.65875 3.555 10.4425 2.875 11.25 C0.05053193 14.95711434 0.56490376 17.30108046 0.875 21.875 C4.505 21.545 8.135 21.215 11.875 20.875 C12.205 19.555 12.535 18.235 12.875 16.875 C15.875 14.875 15.875 14.875 18.4375 15.125 C20.875 15.875 20.875 15.875 22.875 17.875 C23.125 21.375 23.125 21.375 22.875 24.875 C20.875 26.875 20.875 26.875 18.66796875 27 C17.37826172 26.938125 17.37826172 26.938125 16.0625 26.875 C12.17686628 26.78502874 9.37782184 27.00682835 5.875 28.875 C5.28369572 31.53434047 5.28369572 31.53434047 5.875 34.875 C7.44679857 36.95297099 9.20350593 38.77428361 10.9921875 40.66796875 C19.20240766 50.29198201 20.85111446 62.5040563 20.10888672 74.70458984 C18.78769805 86.96488974 11.8326198 98.07341354 2.4375 105.8125 C-1.91663257 108.9571513 -7.5733882 112.875 -13.125 112.875 C-13.455 114.195 -13.785 115.515 -14.125 116.875 C-20.75 118.125 -20.75 118.125 -24.125 115.875 C-24.77325345 109.93267669 -24.77325345 109.93267669 -22.9375 106.9375 C-20.50007352 105.50866379 -18.91623119 105.60268476 -16.125 105.875 C-15.51269531 106.08898437 -14.90039062 106.30296875 -14.26953125 106.5234375 C-8.97205466 107.39187629 -3.16180746 102.56620497 1.0625 99.75 C8.45243074 93.07386939 13.38182054 83.17519399 14.15234375 73.33203125 C14.47425337 60.49427545 11.75207907 50.04263632 3.35546875 40.0703125 C2.86691406 39.67585938 2.37835938 39.28140625 1.875 38.875 C-0.77966049 39.10543864 -0.77966049 39.10543864 -3.125 39.875 C-3.31912181 41.35331221 -3.50512131 42.83269316 -3.6875 44.3125 C-3.79191406 45.13621094 -3.89632812 45.95992187 -4.00390625 46.80859375 C-4.04386719 47.49050781 -4.08382812 48.17242187 -4.125 48.875 C-3.63 49.37 -3.63 49.37 -3.125 49.875 C-2.85912169 52.93260057 -2.69090119 55.08340805 -4.1875 57.8125 C-7.30642449 59.52287795 -9.78057801 58.68013863 -13.125 57.875 C-14.64650158 54.83199684 -14.36399393 52.220915 -14.125 48.875 C-13.135 48.215 -12.145 47.555 -11.125 46.875 C-10.50733106 44.71695119 -10.50733106 44.71695119 -10.375 42.3125 C-10.25898437 41.10400391 -10.25898437 41.10400391 -10.140625 39.87109375 C-10.13546875 39.21238281 -10.1303125 38.55367187 -10.125 37.875 C-10.62 37.38 -10.62 37.38 -11.125 36.875 C-12.81641656 36.96463062 -14.50459602 37.12077676 -16.1875 37.3125 C-17.10660156 37.41433594 -18.02570313 37.51617187 -18.97265625 37.62109375 C-19.68292969 37.70488281 -20.39320312 37.78867188 -21.125 37.875 C-21.434375 38.679375 -21.74375 39.48375 -22.0625 40.3125 C-23.125 42.875 -23.125 42.875 -24.125 43.875 C-27.5625 43.625 -27.5625 43.625 -31.125 42.875 C-33.28002531 39.64246204 -33.59356135 38.62349077 -33.125 34.875 C-31.91015625 33.22265625 -31.91015625 33.22265625 -30.125 31.875 C-27.8203125 31.65234375 -27.8203125 31.65234375 -25.25 31.8125 C-21.36808046 31.94303238 -18.62963864 31.74414061 -15.125 29.875 C-14.77294032 26.7064629 -14.84213663 25.28232325 -16.6875 22.625 C-19.79211583 20.39604504 -22.37581053 20.35216957 -26.125 19.875 C-28.125 18.75 -28.125 18.75 -29.125 16.875 C-29 13.3125 -29 13.3125 -28.125 9.875 C-25.125 7.875 -25.125 7.875 -22.1875 7.75 C-18.66683992 9.0433037 -18.47890159 9.5249136 -16.9375 12.75 C-16.65519531 13.44867188 -16.37289062 14.14734375 -16.08203125 14.8671875 C-15.03426379 17.06536086 -14.01657325 18.34938439 -12.125 19.875 C-9.49929296 20.12569913 -9.49929296 20.12569913 -7.125 19.875 C-4.62931382 14.88362764 -5.32746886 11.45163906 -6.9375 6.25 C-7.125 3.875 -7.125 3.875 -5.5625 1.5 C-3.125 -0.125 -3.125 -0.125 0 0 Z " fill="#F5F5F5" transform="translate(132.125,33.125)"/>
</svg>
