<?xml version="1.0" encoding="UTF-8" standalone="no"?>
<svg
   xmlns:dc="http://purl.org/dc/elements/1.1/"
   xmlns:cc="http://creativecommons.org/ns#"
   xmlns:rdf="http://www.w3.org/1999/02/22-rdf-syntax-ns#"
   xmlns:svg="http://www.w3.org/2000/svg"
   xmlns="http://www.w3.org/2000/svg"
   viewBox="0 0 1644.0933 1209.4493"
   height="1209.4493"
   width="1644.0933"
   xml:space="preserve"
   id="svg2"
   version="1.1"><metadata
     id="metadata8"><rdf:RDF><cc:Work
         rdf:about=""><dc:format>image/svg+xml</dc:format><dc:type
           rdf:resource="http://purl.org/dc/dcmitype/StillImage" /></cc:Work></rdf:RDF></metadata><defs
     id="defs6"><clipPath
       id="clipPath18"
       clipPathUnits="userSpaceOnUse"><path
         id="path16"
         d="M 0,907.087 H 1233.071 V 0 H 0 Z" /></clipPath></defs><g
     transform="matrix(1.3333333,0,0,-1.3333333,0,1209.4493)"
     id="g10"><g
       id="g12"><g
         clip-path="url(#clipPath18)"
         id="g14"><g
           transform="translate(616.5298,668.8581)"
           id="g20"><path
             id="path22"
             style="fill:#115740;fill-opacity:1;fill-rule:nonzero;stroke:none"
             d="m 0,0 c -118.911,0 -215.309,-96.398 -215.309,-215.309 0,-118.911 96.398,-215.321 215.309,-215.321 118.922,0 215.321,96.41 215.321,215.321 C 215.321,-96.398 118.922,0 0,0" /></g><g
           transform="translate(616.5298,310.5944)"
           id="g24"><path
             id="path26"
             style="fill:#ffffff;fill-opacity:1;fill-rule:nonzero;stroke:none"
             d="m 0,0 c -78.947,0 -142.943,63.996 -142.943,142.943 0,78.947 63.996,142.943 142.943,142.943 78.947,0 142.943,-63.996 142.943,-142.943 C 142.943,63.996 78.947,0 0,0" /></g><g
           transform="translate(579.0728,331.777)"
           id="g28"><path
             id="path30"
             style="fill:#115740;fill-opacity:1;fill-rule:nonzero;stroke:none"
             d="m 0,0 v 7.785 l 0.074,3.855 -0.341,0.267 -5.76,-1.041 v -1.3 l 0.316,0.035 C -5.15,9.647 -3.615,9.746 -3.188,9.466 -2.706,9.15 -2.62,8.204 -2.61,8.075 V 0 c 0,-1.439 -0.025,-2.689 -0.049,-4.155 L -6.406,-4.166 -6.418,-5.662 H 3.685 L 3.696,-4.154 0.049,-4.155 C 0.025,-2.665 0,-1.439 0,0" /></g><g
           transform="translate(603.1421,326.8747)"
           id="g32"><path
             id="path34"
             style="fill:#115740;fill-opacity:1;fill-rule:nonzero;stroke:none"
             d="m 0,0 c -2.024,0 -3.323,1.375 -3.323,3.591 0,1.757 0.764,2.787 2.33,3.857 C 2.177,5.958 3.132,4.812 3.132,3.209 3.132,1.299 1.948,0 0,0 m -2.865,13.368 c 0,1.719 1.337,2.788 2.865,2.788 1.718,0 2.673,-1.375 2.673,-3.17 0,-1.49 -0.496,-2.597 -1.909,-3.781 -2.903,1.375 -3.629,2.711 -3.629,4.163 M 2.406,8.402 C 2.292,8.518 2.101,8.67 2.063,8.823 2.024,9.09 2.406,9.396 2.444,9.434 c 1.795,1.146 2.445,2.444 2.445,3.667 0,2.292 -1.757,4.048 -4.851,4.048 -2.903,0 -5.194,-1.756 -5.194,-4.545 0,-1.756 0.84,-3.247 2.75,-4.43 0.114,-0.077 0.267,-0.23 0.229,-0.382 C -2.215,7.639 -2.444,7.448 -2.483,7.41 -4.583,6.378 -5.691,5.08 -5.691,3.246 c 0,-2.635 2.101,-4.162 5.538,-4.162 3.476,0 5.805,1.871 5.805,4.621 0,2.063 -1.031,3.438 -3.246,4.697" /></g><g
           transform="translate(631.9775,336.0036)"
           id="g36"><path
             id="path38"
             style="fill:#115740;fill-opacity:1;fill-rule:nonzero;stroke:none"
             d="m 0,0 c 0,0 0,-0.191 -0.114,-0.421 -0.076,-0.229 -0.306,-0.42 -0.42,-0.534 -0.65,-0.382 -1.337,-0.573 -2.177,-0.573 -2.062,0 -3.553,1.413 -3.553,4.315 0,2.827 1.452,4.24 3.132,4.24 1.872,0 3.171,-1.795 3.171,-6.225 C 0.039,0.534 0,0.267 0,0 m -3.093,8.021 c -3.285,0 -5.805,-2.14 -5.844,-5.577 0,-3.323 2.291,-5.271 5.271,-5.271 0.878,0 1.642,0.153 2.329,0.459 0.115,0.038 0.421,0.114 0.611,0 0.23,-0.153 0.192,-0.611 0.154,-0.879 L -0.61,-3.399 c -0.955,-2.788 -3.094,-4.737 -6.913,-6.036 l 0.152,-0.763 c 6.799,1.527 10.121,5.844 10.121,11.076 0,4.393 -2.177,7.143 -5.843,7.143" /></g><g
           transform="translate(655.9297,335.4352)"
           id="g40"><path
             id="path42"
             style="fill:#115740;fill-opacity:1;fill-rule:nonzero;stroke:none"
             d="m 0,0 c 2.658,0.706 3.953,2.318 3.953,4.344 0,2.488 -1.904,4.246 -5.199,4.246 -2.563,0 -5.653,-1.781 -5.149,-3.613 0.244,-0.633 0.733,-0.853 1.27,-0.853 0.83,0 1.293,0.439 1.536,1.562 l 0.176,0.67 V 6.354 c 0,0 0.288,0.517 0.669,0.807 0.498,0.378 1.283,0.39 1.47,0.387 C 0.388,7.321 1.342,6.165 1.342,4.27 1.342,1.805 -0.171,0.486 -2.514,0.486 h -1.001 v -1.071 h 1.196 c 2.709,0 4.1,-1.417 4.1,-3.955 0,-2.385 -1.227,-3.8 -3.56,-3.963 l 0.039,0.006 c 0,0 -0.72,-0.012 -1.299,0.216 -0.462,0.181 -0.82,0.868 -0.877,0.982 l -0.185,0.758 c -0.316,1.318 -0.675,2.029 -1.561,2.063 -0.609,0.024 -1.272,-0.25 -1.27,-1.137 0.203,-2.814 2.368,-3.878 5.295,-3.878 3.71,0 6.126,2.123 6.126,5.051 C 4.489,-2.174 3.147,-0.514 0,0" /></g><g
           transform="translate(699.5742,311.8063)"
           id="g44"><path
             id="path46"
             style="fill:#ffffff;fill-opacity:1;fill-rule:nonzero;stroke:none"
             d="m 0,0 c -0.072,-0.276 -0.22,-0.613 -0.642,-0.771 -0.422,-0.157 -0.682,-0.017 -0.755,0.029 -0.075,0.045 -0.228,0.185 0.015,0.513 0.243,0.33 0.68,0.641 0.897,0.68 C -0.268,0.49 0.073,0.275 0,0 m -1.508,-4.517 c -0.157,-0.453 -0.402,-1.14 -0.96,-1.286 -0.557,-0.145 -0.874,0.019 -0.944,0.317 -0.075,0.317 0.079,1.336 0.881,1.829 0.609,0.374 1.18,-0.406 1.023,-0.86 M 2.071,4.611 C 1.079,5.156 -0.098,5.602 -0.473,5.323 -0.848,5.045 -1.021,5.061 -1.418,4.424 -1.814,3.788 -2.411,2.323 -3.065,3.169 -3.721,4.015 -4.261,5.386 -4.804,5.735 -5.347,6.085 -6.101,6.132 -6.701,6.059 -7.301,5.985 -7.855,6.093 -7.882,5.677 -7.909,5.261 -7.616,3.63 -7.289,2.706 c 0.327,-0.924 0.78,-1.956 0.384,-2.485 -0.398,-0.529 -2.425,-0.69 -2.679,-1.028 -0.253,-0.338 -0.808,-0.998 -0.249,-1.388 0.559,-0.39 1.565,-0.887 1.581,-1.375 0.015,-0.488 -0.364,-1.7 -0.004,-2.237 0.361,-0.538 1.38,-1.006 1.89,-0.08 0.511,0.928 1.377,0.832 1.279,0.053 -0.098,-0.779 -0.04,-1.445 -1.031,-2.312 -0.99,-0.865 -2.601,-1.248 -1.53,-1.907 1.07,-0.658 1.9,-0.946 1.996,-1.742 0.094,-0.796 -0.006,-1.167 -0.216,-1.45 -0.21,-0.282 -0.257,-0.59 0.35,-0.76 0.608,-0.171 0.963,0.002 1.36,0.191 0.395,0.189 0.953,0.441 1.128,-0.11 0.176,-0.55 0.288,-0.92 0.181,-1.135 -0.043,-0.087 -0.908,-0.673 -1.413,-1.791 -0.701,-1.552 -1.693,-3.759 -3.096,-5.221 -2.341,-2.437 -2.469,-2.836 -3.21,-3.081 -0.599,-0.2 -0.72,-0.103 -0.888,-0.244 -0.168,-0.14 -0.267,-0.598 -0.129,-0.805 0.137,-0.206 0.755,-1.798 2.162,-1.728 1.406,0.071 2.936,0.529 3.792,1.746 0.857,1.218 5.255,13.017 5.889,13.797 0.633,0.781 1.759,0.866 1.85,0.479 0.093,-0.388 0.223,-1.333 -0.442,-2.481 -0.666,-1.146 -1.378,-1.833 -1.392,-2.094 -0.012,-0.261 0.491,-1.055 0.772,-1.838 0.259,-0.722 0.148,-1.074 0.561,-1.568 0.414,-0.493 0.882,-0.924 0.902,-1.032 0.019,-0.109 -0.504,-1.512 -1.487,-3.39 -0.983,-1.877 -1.237,-2.215 -1.712,-2.65 -0.477,-0.435 -1.046,-0.715 -1.014,-1.01 0.032,-0.294 0.466,-0.896 1.182,-0.94 0.715,-0.044 1.287,0.042 1.623,0.431 0.336,0.388 0.733,1.685 1.469,2.982 0.738,1.297 0.905,1.865 1.145,2.048 0.24,0.183 1.229,0.048 1.628,-0.728 0.398,-0.774 0.56,-1.586 -0.029,-2.526 -0.588,-0.94 -1.68,-1.515 -1.729,-1.734 -0.049,-0.219 0.201,-1.136 1.661,-1.129 1.459,0.007 1.965,0.449 2.577,0.764 0.612,0.316 1.359,0.192 1.796,0.629 0.438,0.439 0.857,1.986 0.156,3.42 -0.699,1.434 -1.09,2.071 -1.634,2.741 -0.543,0.671 -1.825,2.136 -1.039,2.991 0.786,0.855 1.097,1.08 1.461,1.223 0.362,0.143 1.202,1.061 0.948,1.705 -0.255,0.646 -1.069,1.233 -1.482,0.958 -0.413,-0.274 -0.828,-1.551 -1.394,-2.133 -0.568,-0.582 -1.387,-1.376 -2.17,-0.781 -0.784,0.595 -1.439,1.333 -1.527,1.653 -0.089,0.319 0.675,1.262 1.224,2.634 0.55,1.371 1.531,4.447 0.994,5.962 -0.537,1.517 -1.272,1.669 -1.635,1.526 -0.363,-0.143 -1.917,-1.231 -2.451,-0.552 -0.534,0.68 -0.493,1.464 0.153,2.934 0.644,1.47 0.839,2.562 0.84,3.029 C 2.066,-0.396 2.02,0.064 2.527,0.525 3.034,0.986 4.17,1.508 3.778,2.467 3.387,3.426 3.063,4.066 2.071,4.611" /></g><g
           transform="translate(686.9531,292.9235)"
           id="g48"><path
             id="path50"
             style="fill:#ffffff;fill-opacity:1;fill-rule:nonzero;stroke:none"
             d="m 0,0 c -0.051,0.066 0.001,0.341 0.251,0.532 0.251,0.193 0.714,1.474 -0.237,2.589 -0.952,1.115 -2.264,2.233 -2.365,2.525 -0.1,0.291 -0.143,0.683 0.581,1.077 0.726,0.392 1.164,0.723 1.045,1.249 -0.119,0.526 -0.342,0.643 -0.159,0.958 0.184,0.314 0.56,0.718 1.94,0.266 C 2.437,8.743 3.311,7.742 3.536,7.43 3.762,7.118 4.034,6.686 3.711,5.664 3.387,4.642 2.621,3.571 2.729,3.037 2.838,2.502 3.267,2.183 3.299,1.888 3.331,1.593 3.374,-0.123 2.916,-0.686 2.458,-1.248 1.561,-1.159 0.972,-0.776 0.384,-0.394 0.174,-0.229 0,0" /></g><g
           transform="translate(542.5571,296.6911)"
           id="g52"><path
             id="path54"
             style="fill:#ffffff;fill-opacity:1;fill-rule:nonzero;stroke:none"
             d="m 0,0 c -0.491,-1.191 -0.947,-1.986 -1.215,-2.197 -0.269,-0.199 -0.608,0.491 -0.702,1.04 -0.082,0.503 -0.257,0.935 0.024,1.905 0.292,0.971 0.736,1.555 1.11,1.742 0.374,0.198 0.97,0.024 1.111,-0.245 C 0.468,1.976 0.492,1.192 0,0 m -3.319,1.684 c -0.082,-0.655 -1.017,-1.964 -1.45,-2.127 -0.315,-0.129 -0.63,-0.141 -1.694,0.689 -1.052,0.83 -1.333,2.127 -1.099,2.326 0.233,0.199 0.584,0.386 1.437,0.351 0.9,-0.035 1.695,-0.176 2.256,-0.409 0.55,-0.223 0.608,-0.316 0.55,-0.83 m 14.295,13.103 c 0.678,1.181 0.877,1.367 0.608,2.022 -0.269,0.69 -1.11,1.601 -1.683,2.174 C 9.328,19.556 8.79,19.708 8.218,19.859 7.645,19.977 7.493,19.556 7.458,19.404 7.423,19.217 7.271,17.919 6.546,15.698 5.856,13.489 3.215,7.68 2.724,6.769 2.268,5.845 2.069,5.81 1.648,5.541 1.275,5.307 -6.521,5.728 -10.497,5.927 c -3.973,0.151 -5.002,0.374 -6.452,0.76 -1.484,0.42 -1.531,0.572 -1.905,0.689 -0.35,0.07 -0.654,-0.654 -0.654,-0.654 0,0 0.082,-0.27 0.304,-0.842 0.268,-0.526 1.297,-1.449 1.566,-1.976 0.304,-0.537 0.725,-1.308 0.923,-1.414 0.187,-0.117 0.877,0.304 2.408,0.491 1.52,0.187 3.589,0.117 4.349,-0.117 0.76,-0.222 0.806,-0.456 0.76,-0.689 -0.071,-0.223 -0.304,-0.305 -1.368,-1.754 -1.076,-1.449 -1.298,-3.249 -1.263,-3.623 0.036,-0.386 0.643,-0.538 0.76,-0.573 0.082,-0.047 0.538,0 1.449,0.222 0.889,0.269 2.186,1.379 2.607,1.567 0.374,0.233 1.297,0.046 1.567,0 0.257,-0.035 0.607,-0.188 0.572,-0.421 0,-0.258 -0.655,-1.789 -1.379,-2.63 -0.76,-0.842 -3.367,-1.146 -9.129,-1.754 -5.728,-0.619 -9.316,1.063 -9.702,1.216 -0.421,0.152 -0.456,0.456 -0.491,0.503 -0.081,0.035 -0.316,-0.082 -0.503,-0.235 -0.151,-0.116 -0.537,-0.724 -0.186,-1.952 0.373,-1.18 1.18,-2.021 1.835,-2.326 0.642,-0.304 5.844,-0.725 9.316,-0.49 3.436,0.257 10.917,2.63 11.384,2.712 0.457,0.104 0.913,0.104 1.029,0.035 0.07,-0.082 0.538,-2.105 0.643,-3.975 0.117,-1.905 -0.035,-6.335 0,-6.569 0.047,-0.233 0.69,-0.456 0.842,-0.537 0.199,-0.07 0.503,-0.117 0.958,0.081 0.421,0.152 1.415,0.912 1.684,1.145 0.268,0.223 0.572,0.538 0.689,0.795 0.152,0.27 0.725,1.766 1.905,4.279 1.216,2.559 2.712,4.85 2.783,5.12 0.116,0.268 -0.071,0.421 -0.258,1.04 -0.198,0.607 -0.198,0.946 -0.316,1.251 -0.105,0.35 -0.338,-0.035 -0.374,-0.071 0,-0.082 0,-0.035 -0.537,-1.227 C 4.781,-7.177 3.332,-9.503 2.946,-9.924 2.607,-10.344 1.917,-10.613 1.73,-10.192 1.543,-9.818 1.427,-7.901 1.614,-5.798 1.8,-3.705 3.098,0.27 3.519,1.263 c 0.42,1.028 1.11,0.689 1.496,0.654 0.421,0 1.905,-0.116 2.408,0.105 0.456,0.235 0.724,0.421 0.795,1.31 C 8.335,4.208 7.376,4.208 7.037,4.208 6.698,4.161 5.658,4.431 5.506,4.887 5.319,5.307 5.4,5.459 6.85,8.288 c 1.449,2.828 3.401,5.307 4.126,6.499" /></g><g
           transform="translate(523.165,294.5173)"
           id="g56"><path
             id="path58"
             style="fill:#ffffff;fill-opacity:1;fill-rule:nonzero;stroke:none"
             d="m 0,0 c 0.153,0.382 0.878,0.306 1.222,0.344 0.344,0 1.222,0.228 2.025,0.725 0.84,0.458 1.145,1.261 1.413,1.108 0.229,-0.153 0.305,-1.605 0.267,-3.018 0,-1.375 -1.375,-1.222 -1.719,-1.26 -0.382,0 -3.17,-0.038 -3.514,0.23 C -0.649,-1.566 -0.115,-0.382 0,0" /></g><g
           transform="translate(535.8452,308.5339)"
           id="g60"><path
             id="path62"
             style="fill:#ffffff;fill-opacity:1;fill-rule:nonzero;stroke:none"
             d="M 0,0 C 0.038,0.191 0.191,0.229 0.306,0.268 0.42,0.306 0.802,-0.038 1.948,-0.306 3.056,-0.573 5.118,-0.61 5.92,-0.496 6.722,-0.344 7.792,-0.268 8.631,-0.764 9.472,-1.299 9.052,-3.208 8.785,-3.743 8.517,-4.277 7.753,-4.163 6.607,-4.201 5.5,-4.239 3.819,-4.469 3.285,-4.469 2.75,-4.43 1.757,-3.896 0.84,-2.674 -0.076,-1.451 -0.076,-0.152 0,0" /></g><g
           transform="translate(558.2646,301.0485)"
           id="g64"><path
             id="path66"
             style="fill:#ffffff;fill-opacity:1;fill-rule:nonzero;stroke:none"
             d="m 0,0 c -0.84,-2.368 -3.476,-2.063 -4.086,-2.024 -0.65,0.038 -0.841,0.305 -0.841,0.381 0,0.077 1.146,1.91 1.642,3.132 0.497,1.261 0.268,3.476 0.268,3.476 0,0 0.916,-0.344 1.566,-0.764 C -0.84,3.742 0.84,2.367 0,0" /></g><g
           transform="translate(587.6733,280.6911)"
           id="g68"><path
             id="path70"
             style="fill:#ffffff;fill-opacity:1;fill-rule:nonzero;stroke:none"
             d="m 0,0 c -0.802,-0.84 -1.222,-2.636 -2.253,-5.806 -1.07,-3.208 -1.757,-7.333 -2.139,-8.937 -0.382,-1.604 -0.84,-2.788 -2.139,-2.597 -1.26,0.192 -2.406,2.368 -2.559,3.094 -0.153,0.725 0.268,1.299 0.726,1.909 0.42,0.611 1.222,2.827 1.833,4.698 0.573,1.833 0.573,4.965 1.108,6.226 0.229,0.534 1.108,2.253 1.337,3.819 0.229,1.605 0.458,3.4 0.725,3.705 0.191,0.191 0.421,0.306 0.65,0.306 0.267,0 0.649,-0.191 1.146,-0.841 0.534,-0.649 0.763,-1.299 1.031,-1.91 C -0.267,3.018 -0.076,2.598 0.382,2.559 0.84,2.482 1.146,2.902 1.184,2.902 1.261,2.902 1.528,2.712 1.528,2.139 1.528,1.527 0.84,0.879 0,0" /></g><g
           transform="translate(585.3818,298.8327)"
           id="g72"><path
             id="path74"
             style="fill:#ffffff;fill-opacity:1;fill-rule:nonzero;stroke:none"
             d="M 0,0 C 0.153,0.306 0.573,0.955 0.955,0.879 1.375,0.764 1.948,-0.649 2.406,-1.947 2.941,-3.399 3.094,-4.927 2.636,-5.882 2.215,-6.837 1.184,-7.562 0.649,-8.402 0.115,-9.28 0.077,-9.701 -0.344,-9.93 c -0.382,-0.267 -0.649,-0.382 -0.763,-0.191 -0.115,0.152 0.038,3.17 0.229,4.239 0.267,1.261 0.802,1.91 0.802,3.247 0,1.336 -0.038,2.329 0.076,2.635" /></g><g
           transform="translate(603.9438,264.5739)"
           id="g76"><path
             id="path78"
             style="fill:#ffffff;fill-opacity:1;fill-rule:nonzero;stroke:none"
             d="m 0,0 c -0.535,-0.077 -2.177,0.878 -2.673,1.031 -0.497,0.115 -0.803,0.229 -0.726,0.42 0.038,0.153 0.267,0.458 0.726,0.802 0.458,0.344 0.954,0.917 1.031,1.375 0.115,0.42 -0.688,1.719 -0.764,2.177 -0.038,0.459 0.153,1.184 0.191,1.26 0.038,0.115 0.114,0.192 0.496,0.153 0.383,0 0.764,-0.306 1.452,-0.916 C 0.458,5.652 0.764,4.277 1.299,3.36 1.833,2.444 2.024,2.559 1.986,1.871 1.91,1.222 0.535,0.076 0,0" /></g><g
           transform="translate(599.2837,282.0915)"
           id="g80"><path
             id="path82"
             style="fill:#ffffff;fill-opacity:1;fill-rule:nonzero;stroke:none"
             d="m 0,0 c -0.362,-0.233 -1.169,-0.42 -1.578,-0.128 -0.409,0.28 -0.304,0.619 -0.304,0.619 0.105,0.562 1.134,1.075 1.707,0.69 C 0.397,0.796 0.351,0.246 0,0 m -2.537,-3.062 c -1.016,0.012 -1.04,0.339 -1.098,0.526 -0.059,0.176 0.175,0.748 0.748,0.935 0.573,0.187 1.052,0.059 1.274,-0.07 0.222,-0.117 0.818,-0.654 0.818,-0.654 0,0 -0.725,-0.748 -1.742,-0.737 m -0.538,8.685 c 0.246,0.315 0.667,0.503 1.368,0.514 C -1.005,6.16 -0.514,6.056 -0.315,5.482 -0.105,4.91 -0.386,4.595 -1.461,4.524 -2.537,4.454 -3.32,5.308 -3.075,5.623 M 8.287,13.454 C 9.246,14.6 9.433,15.523 9.316,16.166 9.211,16.821 8.743,17.394 8.065,17.814 7.329,18.235 6.452,17.546 6.417,17.312 6.3,16.973 6.417,16.739 6.184,15.559 5.961,14.331 5.505,13.805 4.43,13.419 3.319,12.999 2.642,15.021 2.326,15.325 2.069,15.629 1.905,14.95 1.871,14.413 1.8,13.84 1.987,11.514 1.566,11.397 1.18,11.28 0.339,12.964 -0.152,13.338 -0.339,13.454 -0.643,13.303 -0.959,12.964 -1.262,12.613 -1.262,12.005 -1.379,11.047 -1.45,10.1 -1.531,9.831 -2.595,8.802 -3.624,7.762 -7.867,6.733 -8.054,6.663 -8.135,6.616 -8.206,6.546 -8.206,6.465 -8.206,6.348 -8.135,6.044 -7.633,5.471 -7.142,4.898 -6.3,4.478 -5.692,4.372 -5.038,4.256 -4.617,4.174 -4.349,3.53 -4.091,2.841 -4.313,1.041 -4.396,0.199 -4.465,-0.678 -5.236,-1.437 -6.3,-2.197 c -1.075,-0.772 -1.497,-1.765 -1.497,-2.49 -0.035,-0.759 1.731,-1.566 2.607,-1.414 0.841,0.152 1.753,0.923 1.987,1.111 0.222,0.233 0.573,0.303 0.725,0.186 0.152,-0.105 0.572,-0.642 0.643,-1.484 0.035,-0.842 -1.298,-1.718 -1.871,-1.987 -0.572,-0.269 -1.18,-0.117 -1.53,-0.036 -0.34,0.036 -0.422,-0.116 -0.492,-0.268 -0.035,-0.152 0.152,-0.608 0.492,-0.877 0.315,-0.304 1.647,-0.116 1.835,-0.269 0.151,-0.117 0.502,-0.572 0.42,-1.496 -0.035,-0.912 -1.835,-2.244 -2.443,-3.05 -0.642,-0.76 0.456,-0.807 1.075,-0.574 0.643,0.27 2.093,1.146 3.133,2.257 1.064,1.064 1.754,3.401 1.754,3.401 0,0 0.993,-0.152 2.104,-0.082 1.064,0.118 2.092,0.655 3.284,1.485 1.216,0.888 2.093,1.8 2.209,2.138 0.117,0.317 -0.187,0.772 -1.11,1.146 -0.877,0.386 -1.987,0.503 -2.63,0.503 C 3.706,-3.962 3.822,-4.874 3.706,-5.411 3.624,-5.902 3.132,-6.475 2.069,-6.825 c -1.075,-0.34 -0.736,0.841 -0.421,1.226 0.374,0.492 1.029,1.146 2.244,2.63 1.193,1.532 1.11,2.373 0.807,2.981 C 4.395,0.62 4.091,1.848 4.313,2.151 4.547,2.49 4.734,2.42 5.879,3.145 7.025,3.869 7.025,4.372 6.604,5.436 6.229,6.512 4.044,6.733 3.624,7.189 3.25,7.657 3.471,8.65 3.939,9.597 c 0.456,0.994 3.354,2.747 4.348,3.857" /></g><g
           transform="translate(657.6426,276.1745)"
           id="g84"><path
             id="path86"
             style="fill:#ffffff;fill-opacity:1;fill-rule:nonzero;stroke:none"
             d="m 0,0 c -1.551,-0.335 -2.515,0.377 -2.598,0.796 -0.084,0.461 -0.252,0.964 -0.671,1.257 -0.46,0.336 -1.843,0.42 -2.43,0.462 -0.586,0.041 -0.67,-0.587 -0.838,-1.09 -0.125,-0.503 -2.263,-4.107 -3.017,-4.987 -0.754,-0.921 -2.094,-0.879 -2.723,-0.167 -0.628,0.67 -0.209,1.592 1.257,3.226 1.508,1.635 2.598,3.981 2.598,4.483 0,0.503 -0.21,1.215 -0.336,1.257 -0.125,0.084 -0.335,0 -0.712,-0.209 -0.419,-0.168 -1.467,-1.048 -1.885,-1.55 -0.461,-0.503 -1.005,-0.922 -1.424,-1.089 -0.462,-0.168 -0.923,-0.126 -1.216,0.126 -0.293,0.209 -0.754,0.67 -1.006,1.047 -0.251,0.418 -0.167,0.879 0.252,1.549 0.377,0.629 1.341,0.587 1.508,0.587 0.21,-0.042 0.713,0.042 1.928,0.545 1.172,0.461 1.55,0.712 1.801,0.964 0.21,0.209 0.587,0.754 0.88,1.76 0.293,0.964 -0.168,2.89 -0.503,3.812 -0.293,0.88 -1.047,1.467 -1.215,1.676 -0.168,0.168 -0.084,0.378 -0.084,0.964 0,0.545 -0.125,1.006 -0.167,1.341 -0.042,0.336 0.502,0.629 0.796,0.671 0.293,0.042 1.089,-0.419 1.341,-0.629 0.251,-0.167 0.586,-0.042 0.922,0.042 0.335,0.042 0.628,-0.126 1.257,-0.503 0.628,-0.377 0.712,-0.712 0.712,-1.089 -0.042,-0.378 -0.796,-1.886 -0.754,-2.263 0.084,-0.419 0.587,-1.885 0.796,-1.927 0.252,-0.042 0.294,0.46 0.587,0.753 0.251,0.336 1.131,0.587 2.052,0.378 0.922,-0.252 1.257,-0.838 1.257,-1.215 0.042,-0.377 -0.251,-0.922 -1.634,-2.095 -1.382,-1.215 -2.01,-1.718 -2.304,-2.514 -0.293,-0.797 0,-1.258 0.587,-1.677 0.628,-0.377 2.513,0.042 3.268,0.21 C -0.922,5.111 0.167,4.692 1.131,3.938 2.095,3.185 2.262,1.802 2.221,1.383 2.221,1.006 1.55,0.377 0,0" /></g><g
           transform="translate(767.4326,373.319)"
           id="g88"><path
             id="path90"
             style="fill:#ffffff;fill-opacity:1;fill-rule:nonzero;stroke:none"
             d="M 0,0 V 60.08 C 15.628,67.679 17.147,97.777 18.188,101.144 16.809,100.302 5.623,88.192 -8.322,88.04 h -142.581 -142.581 c -13.945,0.152 -25.131,12.262 -26.51,13.104 1.04,-3.367 2.56,-33.465 18.188,-41.064 V 0 h -21.578 l 27.223,-27.306 H -150.903 -5.646 L 21.578,0 Z" /></g><g
           transform="translate(616.5352,653.8845)"
           id="g92"><path
             id="path94"
             style="fill:#ffffff;fill-opacity:1;fill-rule:nonzero;stroke:none"
             d="m 0,0 c -110.468,0 -200.341,-89.873 -200.341,-200.341 0,-110.468 89.873,-200.341 200.341,-200.341 110.469,0 200.342,89.873 200.342,200.341 C 200.342,-89.873 110.469,0 0,0 m 0,-406.526 c -113.691,0 -206.185,92.494 -206.185,206.185 0,113.691 92.494,206.186 206.185,206.186 113.691,0 206.187,-92.495 206.187,-206.186 0,-113.691 -92.496,-206.185 -206.187,-206.185" /></g><g
           transform="translate(711.7461,467.2756)"
           id="g96"><path
             id="path98"
             style="fill:#002554;fill-opacity:1;fill-rule:nonzero;stroke:none"
             d="M 0,0 C 1.453,1.701 2.907,3.539 4.251,5.349 H -194.67 c 1.344,-1.81 2.798,-3.648 4.279,-5.349 z" /></g><g
           transform="translate(611.9214,551.6779)"
           id="g100"><path
             id="path102"
             style="fill:#002554;fill-opacity:1;fill-rule:nonzero;stroke:none"
             d="M 0,0 H 1.423 C 0.171,-2.091 -1.373,-9.714 1.534,-16.11 h 0.004 c -0.348,0 -0.633,-0.285 -0.633,-0.633 0,-0.349 0.285,-0.634 0.634,-0.634 h 0.939 l 10e-4,-0.003 h 4.517 l 0.002,0.003 h 0.695 c 0.349,0 0.634,0.285 0.634,0.634 0,0.348 -0.285,0.633 -0.634,0.633 H 7.697 C 10.604,-9.714 9.06,-2.091 7.808,0 h 1.423 c 0.448,0 0.814,0.367 0.814,0.814 0,0.449 -0.366,0.815 -0.814,0.815 H 9.141 V 1.81 c 0,1.188 -0.83,2.189 -1.936,2.46 0.354,0.325 0.578,0.789 0.578,1.305 v 0.244 l 10e-4,0.342 c 0.305,0.045 0.543,0.309 0.543,0.627 0,0.348 -0.285,0.633 -0.634,0.633 H 7.059 v 0.113 c 0,0.723 -0.569,1.32 -1.282,1.365 H 3.454 C 2.741,8.854 2.172,8.257 2.172,7.534 V 7.421 H 1.539 C 1.19,7.421 0.905,7.136 0.905,6.788 0.905,6.473 1.137,6.21 1.439,6.162 L 1.448,5.846 V 5.575 C 1.448,5.059 1.672,4.595 2.027,4.27 0.919,3.999 0.09,2.998 0.09,1.81 V 1.629 H 0 C -0.448,1.629 -0.815,1.263 -0.815,0.814 -0.815,0.367 -0.448,0 0,0" /></g><path
           id="path104"
           style="fill:#002554;fill-opacity:1;fill-rule:nonzero;stroke:none"
           d="m 623.285,488.052 h -13.443 v -4.78 h 13.443 z" /><g
           transform="translate(571.2109,486.7521)"
           id="g106"><path
             id="path108"
             style="fill:#002554;fill-opacity:1;fill-rule:nonzero;stroke:none"
             d="m 0,0 v -5.271 l -10.045,-4.889 v 5.309 z" /></g><g
           transform="translate(661.8633,486.7521)"
           id="g110"><path
             id="path112"
             style="fill:#002554;fill-opacity:1;fill-rule:nonzero;stroke:none"
             d="m 0,0 v -5.271 l 10.045,-4.889 v 5.309 z" /></g><path
           id="path114"
           style="fill:#002554;fill-opacity:1;fill-rule:nonzero;stroke:none"
           d="m 640.485,488.052 h -13.442 v -4.78 h 13.442 z" /><path
           id="path116"
           style="fill:#002554;fill-opacity:1;fill-rule:nonzero;stroke:none"
           d="m 657.713,488.052 h -13.442 v -4.78 h 13.442 z" /><path
           id="path118"
           style="fill:#002554;fill-opacity:1;fill-rule:nonzero;stroke:none"
           d="m 588.804,488.052 h -13.442 v -4.78 h 13.442 z" /><path
           id="path120"
           style="fill:#002554;fill-opacity:1;fill-rule:nonzero;stroke:none"
           d="m 606.031,488.052 h -13.442 v -4.78 h 13.442 z" /><g
           transform="translate(473.7305,351.4636)"
           id="g122"><path
             id="path124"
             style="fill:#002554;fill-opacity:1;fill-rule:nonzero;stroke:none"
             d="m 0,0 h 285.613 l 6.841,6.85 H -6.841 Z" /></g><g
           transform="translate(465.0083,360.1589)"
           id="g126"><path
             id="path128"
             style="fill:#002554;fill-opacity:1;fill-rule:nonzero;stroke:none"
             d="m 0,0 h 303.057 l 6.814,6.822 H -6.813 Z" /></g><g
           transform="translate(548.2124,377.4089)"
           id="g130"><path
             id="path132"
             style="fill:#002554;fill-opacity:1;fill-rule:nonzero;stroke:none"
             d="m 0,0 h 136.649 l -1.073,3.209 H 1.073 Z" /></g><g
           transform="translate(546.2114,371.3845)"
           id="g134"><path
             id="path136"
             style="fill:#002554;fill-opacity:1;fill-rule:nonzero;stroke:none"
             d="m 0,0 h 140.651 l -1.073,3.209 H 1.073 Z" /></g><g
           transform="translate(551.3159,386.6423)"
           id="g138"><path
             id="path140"
             style="fill:#002554;fill-opacity:1;fill-rule:nonzero;stroke:none"
             d="M 0,0 -1.102,-3.209 H 131.544 L 130.442,0 Z" /></g><g
           transform="translate(547.9141,460.1437)"
           id="g142"><path
             id="path144"
             style="fill:#002554;fill-opacity:1;fill-rule:nonzero;stroke:none"
             d="M 0,0 V 3.072 H -7.296 V -2.057 C -4.581,-1.701 -2.14,-0.96 0,0" /></g><g
           transform="translate(529.9473,459.5129)"
           id="g146"><path
             id="path148"
             style="fill:#002554;fill-opacity:1;fill-rule:nonzero;stroke:none"
             d="M 0,0 C 1.673,-1.07 3.648,-1.536 5.87,-1.646 V 3.703 H -1.399 V 0.96 C -0.933,0.604 -0.466,0.302 0,0" /></g><g
           transform="translate(703.291,459.5129)"
           id="g150"><path
             id="path152"
             style="fill:#002554;fill-opacity:1;fill-rule:nonzero;stroke:none"
             d="M 0,0 C 0.412,0.247 0.823,0.549 1.234,0.851 V 3.703 H -6.034 V -1.646 C -3.758,-1.563 -1.728,-1.097 0,0" /></g><g
           transform="translate(692.4561,458.114)"
           id="g154"><path
             id="path156"
             style="fill:#002554;fill-opacity:1;fill-rule:nonzero;stroke:none"
             d="M 0,0 V 5.102 H -7.269 V 2.085 C -5.156,1.125 -2.716,0.356 0,0" /></g><g
           transform="translate(472.3418,439.902)"
           id="g158"><path
             id="path160"
             style="fill:#002554;fill-opacity:1;fill-rule:nonzero;stroke:none"
             d="m 0,0 h 288.391 c 8.809,0.001 14.168,16.996 14.168,16.996 0,0 -13.897,-8.364 -24.541,-1.647 -10.644,6.717 -22.245,27.312 -22.245,27.312 0,0 -11.599,-20.596 -22.243,-27.313 -10.643,-6.718 -24.541,1.644 -24.541,1.644 0,0 1.901,-6.663 5.635,-11.645 h -6.179 c -0.822,1.646 -1.874,4.362 -2.532,6.144 -1.536,4.142 -2.634,8.394 -3.401,11.823 h -1.673 V 5.347 h -4.668 v 17.978 h -7.214 V 5.347 h -4.885 v 17.978 h -7.214 V 5.347 h -4.884 v 17.978 h -7.213 V 5.347 h -4.885 v 17.978 h -7.214 V 5.347 h -4.848 v 17.978 h -7.287 V 5.347 h -4.847 v 17.978 h -7.214 V 5.347 h -4.885 v 17.978 h -7.213 V 5.347 h -4.885 V 23.325 H 104.27 V 5.347 H 99.385 V 23.325 H 92.171 V 5.347 H 87.528 V 23.314 H 85.855 C 85.087,19.885 83.99,15.633 82.454,11.491 81.795,9.709 80.95,6.993 80.127,5.347 h -6.154 c 3.735,4.982 5.428,11.645 5.428,11.645 0,0 -13.898,-8.362 -24.541,-1.644 -10.643,6.717 -22.243,27.313 -22.243,27.313 0,0 -11.6,-20.595 -22.244,-27.312 -10.644,-6.717 -24.541,1.647 -24.541,1.647 0,0 5.358,-16.995 14.168,-16.996" /></g><g
           transform="translate(553.1836,484.6882)"
           id="g162"><path
             id="path164"
             style="fill:#002554;fill-opacity:1;fill-rule:nonzero;stroke:none"
             d="m 0,0 18.684,9.074 h 89.339 L 126.707,0 c 14.353,2.247 19.516,18.756 19.516,18.756 -9.906,-10.432 -32.105,-6.98 -28.357,3.372 3.267,8.483 1.669,14.016 1.669,14.016 -4.347,-7.904 -11.85,-10.391 -16.755,-10.531 -5.744,-0.164 -10.155,3.339 -10.155,3.339 v 9.84 l 2.568,1.817 v 9.089 H 87.184 V 45.43 h -9.291 -9.612 v 2.118 H 58.247 V 45.43 h -9.433 -9.423 v 4.268 h -7.878 v -9.089 l 2.569,-1.817 v -9.84 c 0,0 -4.411,-3.503 -10.156,-3.339 -4.904,0.14 -12.408,2.627 -16.755,10.531 0,0 -1.597,-5.533 1.669,-14.016 C 12.589,11.776 -9.61,8.324 -19.517,18.756 -19.517,18.756 -14.353,2.247 0,0" /></g><path
           id="path166"
           style="fill:#002554;fill-opacity:1;fill-rule:nonzero;stroke:none"
           d="m 525.102,411.358 h -10.16 v 10.16 h 10.16 z m -14.972,0 h -10.16 v 10.16 h 10.16 z m -14.933,0 h -10.16 v 10.16 h 10.16 z M 472.625,371.37 h 64.852 v 62.828 h -64.852 z" /><path
           id="path168"
           style="fill:#002554;fill-opacity:1;fill-rule:nonzero;stroke:none"
           d="m 748.075,411.358 h -10.159 v 10.16 h 10.159 z m -14.971,0 h -10.16 v 10.16 h 10.16 z m -14.973,0 h -10.159 v 10.16 h 10.159 z M 695.597,371.37 h 64.853 v 62.828 h -64.853 z" /><path
           id="path170"
           style="fill:#002554;fill-opacity:1;fill-rule:nonzero;stroke:none"
           d="m 681.867,394.286 h -3.858 v 27.385 h 3.858 z m -7.219,30.898 h -24.864 v 3.857 h 24.864 z m 0,-30.822 h -24.864 v 24.177 l 4.889,3.132 h 14.857 l 5.118,-3.285 z m -28.224,30.899 h -3.896 v 3.896 h 3.896 z m 0,-30.899 h -3.896 v 27.309 h 3.896 z m -7.257,30.822 -17.875,0.038 v 3.859 l 17.875,-0.039 z m 0,-30.898 h -10.122 v 20.243 H 604.22 v -20.243 h -10.045 v 24.062 l 5.079,3.323 h 34.337 l 5.576,-3.323 z m -11.84,0 h -1.681 V 411.32 H 607.81 v -17.034 h -1.681 v 18.295 h 21.198 z m -36.666,30.898 h -3.781 v 3.857 h 3.781 z m 0,-30.898 h -3.781 v 27.385 h 3.781 z m -7.181,30.898 h -24.864 v 3.857 h 24.864 z m 0,-30.822 h -24.863 v 23.948 l 5.118,3.361 h 14.972 l 4.773,-3.361 z m -28.377,-0.076 h -3.781 v 27.423 h 3.781 z m 39.339,34.756 h 17.302 v -3.857 h -17.302 z m 26.85,5.347 v 3.285 l -9.548,-0.039 v -3.246 h -65.693 l -0.076,-44.342 h 141.047 l 0.077,44.342 z" /><g
           transform="translate(450.314,531.0026)"
           id="g172"><path
             id="path174"
             style="fill:#ffffff;fill-opacity:1;fill-rule:nonzero;stroke:none"
             d="m 0,0 -2.327,0.79 -3.113,-9.172 2.328,-0.791 1.607,3.115 14.505,-9.634 -17.626,0.512 0.759,3.756 -2.336,0.793 -3.671,-10.816 2.339,-0.792 0.615,1.276 c 0.533,1.105 1.939,1.455 2.927,0.728 l 12.219,-8.987 -17.218,1.301 0.689,3.427 -2.337,0.792 -3.677,-10.838 2.339,-0.793 0.497,1.037 c 0.572,1.196 1.81,1.927 3.134,1.852 l 24.138,-1.386 0.738,2.174 -16.999,12.131 20.997,-0.35 0.749,2.208 -21.864,14.343 z" /></g><g
           transform="translate(478.5044,550.8122)"
           id="g176"><path
             id="path178"
             style="fill:#ffffff;fill-opacity:1;fill-rule:nonzero;stroke:none"
             d="m 0,0 -11.555,7.079 1.359,3.119 -2.1,1.286 -5.321,-8.682 2.1,-1.286 1.105,1.342 c 0.829,1.007 2.272,1.249 3.383,0.568 l 8.697,-5.328 c 2.944,-1.803 4.725,-3.505 5.443,-5.202 0.664,-1.568 0.446,-3.16 -0.687,-5.008 -1.459,-2.382 -3.977,-4.6 -10.549,-0.574 l -2.729,1.672 c -2.369,1.451 -5.456,3.352 -8.524,5.309 l 1.665,3.622 -2.107,1.29 -6.188,-10.097 2.106,-1.29 0.583,0.737 c 0.812,1.028 2.262,1.296 3.388,0.626 2.465,-1.468 4.817,-2.902 6.709,-4.062 l 3.737,-2.29 c 2.518,-1.542 4.879,-2.308 7.019,-2.307 3.125,0 5.779,1.632 7.758,4.862 1.546,2.523 1.962,5.009 1.237,7.39 C 5.728,-4.594 3.531,-2.163 0,0" /></g><g
           transform="translate(506.9687,570.8015)"
           id="g180"><path
             id="path182"
             style="fill:#ffffff;fill-opacity:1;fill-rule:nonzero;stroke:none"
             d="m 0,0 c -2.728,2.44 -5.411,4.918 -7.463,6.822 l -1.465,1.359 c -2.064,1.916 -4.747,4.416 -7.361,6.932 l 2.116,2.91 -1.811,1.68 -8.037,-8.664 1.81,-1.68 0.994,0.844 c 1,0.848 2.475,0.823 3.447,-0.056 1.917,-1.735 3.736,-3.414 5.241,-4.808 l -7.953,-8.572 c -2.761,2.564 -4.896,4.577 -6.844,6.452 l 2.111,2.903 -1.811,1.679 -8.037,-8.664 1.811,-1.68 1.001,0.849 c 0.999,0.848 2.473,0.824 3.445,-0.055 2.12,-1.919 4.138,-3.783 5.76,-5.288 l 1.464,-1.36 c 1.725,-1.601 3.686,-3.428 5.701,-5.344 0.951,-0.904 1.088,-2.374 0.317,-3.435 l -0.772,-1.062 1.811,-1.68 8.037,8.664 -1.811,1.68 -2.744,-2.33 c -2.354,2.108 -4.764,4.334 -7.416,6.794 l 7.953,8.573 c 2.024,-1.879 3.9,-3.626 5.67,-5.303 0.953,-0.905 1.086,-2.371 0.314,-3.434 l -0.773,-1.063 1.812,-1.68 8.037,8.664 -1.811,1.681 z" /></g><g
           transform="translate(520.0449,592.2707)"
           id="g184"><path
             id="path186"
             style="fill:#ffffff;fill-opacity:1;fill-rule:nonzero;stroke:none"
             d="M 0,0 -5.344,-3.878 -8.661,6.354 Z m 9.502,-1.459 -19.918,14.451 -2.47,-1.793 7.496,-23.403 c 0.372,-1.16 0.062,-2.431 -0.801,-3.291 l -1.005,-1 1.444,-1.988 7.902,5.736 -1.446,1.992 -3.262,-1.72 -1.891,5.837 6.785,4.925 4.992,-3.664 -2.707,-2.533 1.447,-1.994 9.254,6.717 -1.447,1.993 -0.881,-0.484 c -1.109,-0.609 -2.469,-0.524 -3.492,0.219" /></g><g
           transform="translate(551.1396,625.1432)"
           id="g188"><path
             id="path190"
             style="fill:#ffffff;fill-opacity:1;fill-rule:nonzero;stroke:none"
             d="m 0,0 -1.046,2.222 -9.264,-4.368 1.052,-2.23 2.021,0.651 c 1.094,0.352 2.28,-0.162 2.77,-1.202 l 6.048,-12.834 -20.272,11.664 -6.017,-2.837 1.052,-2.233 0.477,0.12 c 1.514,0.378 3.084,-0.366 3.749,-1.777 l 7.388,-15.681 c 0.479,-1.015 0.142,-2.227 -0.791,-2.85 l -1.153,-0.77 1.048,-2.224 9.263,4.368 -1.05,2.229 -3.944,-1.247 -7.618,16.163 22.485,-12.792 1.823,0.86 -10.788,22.892 z" /></g><g
           transform="translate(625.3584,636.6437)"
           id="g192"><path
             id="path194"
             style="fill:#ffffff;fill-opacity:1;fill-rule:nonzero;stroke:none"
             d="M 0,0 1.814,-0.292 C 3.111,-0.5 4.052,-1.638 4.013,-2.951 L 3.591,-16.847 -9.187,2.746 l -6.65,0.201 -0.075,-2.466 0.48,-0.11 c 1.521,-0.35 2.582,-1.725 2.535,-3.284 l -0.527,-17.327 c -0.034,-1.122 -0.884,-2.05 -1.998,-2.181 l -1.377,-0.163 -0.074,-2.458 10.236,-0.311 0.075,2.464 -4.082,0.678 0.543,17.861 14.238,-21.602 2.015,-0.061 0.769,25.296 3.316,0.416 0.075,2.455 -10.237,0.311 z" /></g><g
           transform="translate(644.1895,634.861)"
           id="g196"><path
             id="path198"
             style="fill:#ffffff;fill-opacity:1;fill-rule:nonzero;stroke:none"
             d="M 0,0 2.076,-0.646 C 2.856,-0.889 3.339,-1.673 3.202,-2.478 2.686,-5.528 2.15,-8.474 1.681,-11.024 l -0.363,-1.965 c -0.458,-2.481 -0.989,-5.328 -1.568,-8.247 -0.191,-0.963 -1.067,-1.634 -2.047,-1.571 l -1.884,0.12 -0.448,-2.43 11.639,-2.148 0.448,2.429 -1.805,0.561 c -0.938,0.292 -1.515,1.235 -1.35,2.204 0.515,3.03 1.047,5.946 1.473,8.261 l 0.362,1.963 c 0.472,2.56 1.023,5.511 1.625,8.527 0.159,0.801 0.889,1.362 1.706,1.309 L 11.64,-2.149 12.087,0.28 0.448,2.43 Z" /></g><g
           transform="translate(688.5,622.6838)"
           id="g200"><path
             id="path202"
             style="fill:#ffffff;fill-opacity:1;fill-rule:nonzero;stroke:none"
             d="M 0,0 0.8,2.328 -8.475,5.515 -9.339,3 -6.35,1.596 l -11.171,-14.872 0.126,18.698 3.475,-0.856 0.867,2.523 -10.847,3.728 -0.803,-2.336 0.961,-0.464 c 1.117,-0.54 1.832,-1.666 1.846,-2.907 l 0.265,-24.98 2.176,-0.748 14.791,19.662 c 0.745,0.99 1.989,1.47 3.206,1.236 z" /></g><g
           transform="translate(698.2949,591.8908)"
           id="g204"><path
             id="path206"
             style="fill:#ffffff;fill-opacity:1;fill-rule:nonzero;stroke:none"
             d="m 0,0 -6.022,3.348 c 1.5,2.815 3.074,5.66 4.81,8.783 L 1.873,10.416 C 2.591,10.017 2.9,9.148 2.598,8.385 L 1.707,6.144 3.97,4.886 9.038,14.001 6.777,15.257 5.301,13.285 C 4.811,12.631 3.913,12.439 3.199,12.837 L 0.13,14.543 c 1.303,2.34 2.955,5.291 4.645,8.204 l 5.335,-2.966 c 1.117,-0.621 1.621,-1.959 1.192,-3.162 l -1.014,-2.846 2.666,-1.482 3.656,7.203 -17.637,9.806 -1.202,-2.158 1.066,-0.772 c 1.062,-0.768 1.391,-2.206 0.767,-3.359 -1.357,-2.516 -2.687,-4.919 -3.763,-6.853 L -5.131,14.411 C -6.211,12.468 -7.554,10.064 -8.966,7.597 -9.616,6.459 -11.011,5.98 -12.225,6.476 L -13.441,6.974 -14.642,4.815 3.675,-5.368 7.864,1.539 5.198,3.021 3.314,0.656 C 2.519,-0.343 1.116,-0.621 0,0" /></g><g
           transform="translate(724.2744,588.7966)"
           id="g208"><path
             id="path210"
             style="fill:#ffffff;fill-opacity:1;fill-rule:nonzero;stroke:none"
             d="M 0,0 -2.009,1.624 C 0.222,4.382 2.258,6.891 4.319,9.347 L 6.598,7.507 C 8.026,6.352 8.83,5.17 8.987,3.994 9.138,2.857 8.715,1.691 7.694,0.429 5.632,-2.126 2.825,-2.284 0,0 m 11.364,-2.505 c 1.473,1.821 1.972,3.902 1.443,6.017 -0.519,2.069 -2.033,4.164 -4.377,6.059 l -8.79,7.101 -1.553,-1.921 0.918,-0.942 c 0.916,-0.941 0.989,-2.416 0.177,-3.447 C -2.545,8.17 -4.224,6.085 -5.697,4.261 L -6.954,2.707 c -1.393,-1.723 -3.121,-3.854 -4.932,-6.039 -0.843,-1.017 -2.312,-1.256 -3.431,-0.553 l -1.101,0.69 -1.553,-1.922 9.205,-7.436 1.553,1.921 -2.523,2.592 c 1.94,2.492 3.956,4.997 6.02,7.552 l 1.151,-0.93 c 2.353,-1.901 2.95,-3.068 1.607,-5.834 l -2.889,-6.029 c -0.938,-1.962 -0.488,-3.386 1.606,-5.078 0.891,-0.72 1.749,-1.229 2.622,-1.555 l 0.292,-0.109 1.476,1.827 -0.938,0.966 c -0.738,0.76 -0.944,1.891 -0.522,2.863 l 1.667,3.834 c 1.078,2.492 1.223,4.398 0.418,6.098 3.338,-1.297 6.539,-0.61 8.59,1.93" /></g><g
           transform="translate(746.5293,568.8283)"
           id="g212"><path
             id="path214"
             style="fill:#ffffff;fill-opacity:1;fill-rule:nonzero;stroke:none"
             d="M 0,0 -0.559,1.559 C -1.612,4.478 -1.375,6.339 0.235,7.782 1.197,8.643 2.299,9.006 3.423,8.831 4.51,8.662 5.583,8.014 6.529,6.958 6.539,6.948 6.549,6.937 6.559,6.926 7.576,5.776 7.553,4.037 6.604,2.829 L 4.915,0.678 7.034,-1.688 11.632,2.073 11.615,2.297 C 11.437,4.719 10.505,6.887 8.843,8.743 7.132,10.654 5.029,11.88 2.923,12.196 0.686,12.532 -1.436,11.869 -3.21,10.278 -6.097,7.693 -6.646,4.225 -4.938,-0.635 l 0.531,-1.522 c 1.257,-3.542 1.139,-5.07 -0.5,-6.539 -1.036,-0.927 -2.19,-1.284 -3.429,-1.075 -1.229,0.212 -2.482,0.998 -3.624,2.271 -0.306,0.342 -0.566,0.67 -0.79,1 -0.793,1.169 -0.681,2.731 0.208,3.829 l 1.919,2.37 -2.126,2.374 -4.909,-4.049 0.036,-0.242 c 0.369,-2.465 1.735,-5.265 3.565,-7.308 1.859,-2.075 4.01,-3.353 6.224,-3.698 0.398,-0.062 0.794,-0.093 1.184,-0.093 1.856,0 3.605,0.697 5.114,2.048 C 1.459,-8.587 1.903,-5.322 0,0" /></g><g
           transform="translate(757.6875,549.1345)"
           id="g216"><path
             id="path218"
             style="fill:#ffffff;fill-opacity:1;fill-rule:nonzero;stroke:none"
             d="M 0,0 1.644,1.135 C 3.782,2.612 6.253,4.31 8.817,6.027 9.497,6.482 10.409,6.363 10.95,5.751 L 12.392,4.12 14.425,5.524 7.693,15.26 5.661,13.857 6.676,11.934 C 7.059,11.209 6.844,10.314 6.177,9.839 3.578,7.989 1.058,6.24 -0.934,4.864 L -2.578,3.729 c -1.949,-1.347 -4.399,-3.031 -6.933,-4.731 -0.816,-0.547 -1.912,-0.408 -2.562,0.329 l -1.252,1.415 -2.033,-1.404 6.73,-9.736 2.033,1.404 -0.882,1.67 c -0.459,0.869 -0.201,1.945 0.6,2.515 C -4.368,-3.025 -1.936,-1.337 0,0" /></g><g
           transform="translate(769.4541,528.6564)"
           id="g220"><path
             id="path222"
             style="fill:#ffffff;fill-opacity:1;fill-rule:nonzero;stroke:none"
             d="m 0,0 1.784,0.896 c 2.688,1.35 5.849,2.927 9.058,4.465 l 1.31,-2.61 c 0.572,-1.138 0.24,-2.523 -0.788,-3.278 l -2.468,-1.815 1.369,-2.725 7.089,3.935 -9.928,19.778 -7.394,-3.334 1.37,-2.727 2.929,0.896 C 5.55,13.854 6.859,13.293 7.432,12.154 L 8.74,9.547 C 5.55,7.87 2.414,6.285 -0.251,4.947 L -2.036,4.051 C -4.145,2.992 -6.793,1.668 -9.533,0.339 c -0.887,-0.43 -1.957,-0.13 -2.494,0.697 l -1.234,1.898 -2.211,-1.11 5.659,-11.273 2.211,1.11 -1.384,3.742 C -5.803,-2.924 -2.665,-1.338 0,0" /></g><g
           transform="translate(794.25,505.7394)"
           id="g224"><path
             id="path226"
             style="fill:#ffffff;fill-opacity:1;fill-rule:nonzero;stroke:none"
             d="m 0,0 -2.356,-0.713 0.504,-3.288 -11.777,1.566 9.002,7.733 1.418,-3.226 2.364,0.715 -3.428,11.327 -2.366,-0.714 0.247,-1.398 C -6.195,10.893 -6.584,9.761 -7.42,9.007 l -8.76,-7.903 c -1.08,-0.975 -2.376,-1.7 -3.769,-2.117 -1.498,-0.449 -2.834,-0.845 -4.093,-1.208 -0.793,-0.229 -1.632,0.166 -1.958,0.925 l -1.013,2.362 -2.367,-0.716 3.654,-12.071 2.368,0.716 -0.73,3.942 c 2.477,0.8 5.18,1.624 7.752,2.403 l 13.529,-1.905 c 1.073,-0.151 1.998,-0.827 2.47,-1.802 l 0.81,-1.675 2.351,0.711 z" /></g><g
           transform="translate(599.1196,622.1755)"
           id="g228"><path
             id="path230"
             style="fill:#ffffff;fill-opacity:1;fill-rule:nonzero;stroke:none"
             d="m 0,0 -2.21,13.369 3.247,1.015 -0.402,2.429 -10.047,-1.66 0.402,-2.429 1.738,0.043 c 1.303,0.033 2.431,-0.9 2.644,-2.186 L -2.964,0.518 c 0.564,-3.406 0.443,-5.866 -0.37,-7.519 -0.751,-1.529 -2.098,-2.406 -4.236,-2.759 -2.756,-0.456 -6.081,-0.005 -7.339,7.6 l -0.522,3.158 c -0.453,2.74 -1.037,6.318 -1.565,9.919 l 3.828,1.112 -0.404,2.437 -11.684,-1.931 0.403,-2.436 0.939,0.042 c 1.309,0.058 2.46,-0.863 2.691,-2.153 0.503,-2.823 0.958,-5.54 1.32,-7.73 l 0.715,-4.324 c 0.482,-2.913 1.448,-5.199 2.849,-6.817 2.046,-2.362 5.017,-3.3 8.755,-2.683 2.918,0.483 5.07,1.795 6.396,3.901 C 0.276,-7.337 0.676,-4.085 0,0" /></g></g></g></g></svg>